<?xml version="1.0" encoding="UTF-8"?> <svg xmlns="http://www.w3.org/2000/svg" width="2477" height="486" viewBox="0 0 2477 486" fill="none"> <path d="M277.835 161.199V477.918H409.763V266.481H462.185V477.918H594.113V161.199H277.835Z" fill="black"></path> <path d="M2458.14 34.9482H2332.77V291.818H2458.14V34.9482Z" fill="black"></path> <path d="M2395.24 485.781C2440.35 485.781 2476.93 449.207 2476.93 404.09C2476.93 358.973 2440.35 322.398 2395.24 322.398C2350.12 322.398 2313.55 358.973 2313.55 404.09C2313.55 449.207 2350.12 485.781 2395.24 485.781Z" fill="black"></path> <path d="M1202.21 153.336C1110.47 153.336 1036.2 227.601 1036.2 319.34C1036.2 411.08 1110.47 485.345 1202.21 485.345V153.336Z" fill="black"></path> <path d="M892.917 161.199V193.526C872.385 174.742 838.748 152.899 790.694 152.899C705.072 152.899 630.371 217.116 630.371 318.903C630.371 419.817 705.072 484.908 790.694 484.908C840.058 484.908 873.259 463.939 892.917 445.154V476.608H999.945V160.325H892.917V161.199ZM807.731 362.589C784.142 362.589 764.92 343.367 764.92 319.777C764.92 296.187 784.142 276.965 807.731 276.965C831.321 276.965 850.542 296.187 850.542 319.777C850.542 343.367 831.321 362.589 807.731 362.589Z" fill="black"></path> <path d="M1807.24 157.267L1907.71 114.893L1859.22 0L1607.16 106.155L1649.97 207.506C1622.89 237.212 1606.73 276.529 1606.73 319.34C1606.73 411.079 1680.99 485.345 1772.73 485.345C1864.47 485.345 1938.73 411.079 1938.73 319.34C1938.73 239.833 1882.38 172.994 1807.24 157.267ZM1772.73 362.589C1749.14 362.589 1729.92 343.367 1729.92 319.777C1729.92 296.187 1749.14 276.965 1772.73 276.965C1796.32 276.965 1815.54 296.187 1815.54 319.777C1815.54 343.367 1796.32 362.589 1772.73 362.589Z" fill="black"></path> <path d="M2130.51 153.336C2038.77 153.336 1964.5 227.601 1964.5 319.34C1964.5 411.08 2038.77 485.345 2130.51 485.345C2222.24 485.345 2296.51 411.08 2296.51 319.34C2296.51 228.038 2222.24 153.336 2130.51 153.336ZM2130.51 362.589C2106.92 362.589 2087.7 343.367 2087.7 319.777C2087.7 296.187 2106.92 276.965 2130.51 276.965C2154.1 276.965 2173.32 296.187 2173.32 319.777C2173.32 343.367 2154.1 362.589 2130.51 362.589Z" fill="black"></path> <path d="M182.602 260.365C182.602 236.775 201.823 217.553 225.413 217.553V34.9482C100.912 34.9482 0 135.862 0 260.365C0 384.868 100.912 485.781 225.413 485.781V303.177C201.823 303.177 182.602 283.955 182.602 260.365Z" fill="black"></path> <path d="M1456.45 161.199L1370.83 271.286V161.199H1253.75V477.918H1365.15L1455.14 363.462V477.918H1570.47V161.199H1456.45Z" fill="black"></path> </svg> 